<svg xmlns="http://www.w3.org/2000/svg" width="31.205" height="23.404" viewBox="0 0 31.205 23.404">
  <path id="Icon_metro-profile" data-name="Icon metro-profile" d="M33.475,11.056H31.293V7.781l-4.5-.069.023,3.343H13.275l.093-3.343-4.411.069v3.343l-2.229-.069A2.23,2.23,0,0,0,4.5,13.285v15.6a2.23,2.23,0,0,0,2.229,2.229H33.475A2.23,2.23,0,0,0,35.7,28.887v-15.6A2.23,2.23,0,0,0,33.475,11.056ZM27.9,8.827h2.229v4.458H27.9ZM13.415,16.418c1.346,0,2.438,1.434,2.438,3.2s-1.092,3.2-2.438,3.2-2.438-1.434-2.438-3.2,1.092-3.2,2.438-3.2ZM10.071,8.827H12.3v4.458H10.071ZM8.586,26.6s.264-2.12.865-2.52a8.547,8.547,0,0,1,2.329-.666s1.121,1.2,1.6,1.2,1.6-1.2,1.6-1.2a8.521,8.521,0,0,1,2.33.666c.705.47.882,2.52.882,2.52h-9.6Zm22.661-1.057H21.216V24.429h10.03Zm0-2.229H21.216V22.2h10.03Zm0-2.229H21.216V19.971h10.03Zm0-2.229H21.216V17.742h10.03Z" transform="translate(-4.499 -7.712)"/>
</svg>
